<svg width="1080" height="1080" viewBox="0 0 1080 1080" fill="none" xmlns="http://www.w3.org/2000/svg">
<g clip-path="url(#clip0_65_13)">
<path d="M524 713.6C425.867 713.6 376.8 664.8 376.8 567.2V408H265.6V323.2H376.8V215.2L471.2 174.4V323.2H615.2V408H471.2V552.8C471.2 580 476.267 599.2 486.4 610.4C497.067 621.6 515.2 627.2 540.8 627.2C572.267 627.2 602.667 618.133 632 600L656 680C617.6 702.4 573.6 713.6 524 713.6Z" fill="white"/>
<path d="M228 826.2L335.111 719.089C362.222 691.978 406.178 691.978 433.289 719.089L491.311 777.111C518.422 804.222 562.378 804.222 589.489 777.111L647.511 719.089C674.622 691.978 718.578 691.978 745.689 719.089L852.8 826.2" stroke="#EC7FA9" stroke-width="76.3644"/>
</g>
<defs>
<clipPath id="clip0_65_13">
<rect width="1080" height="1080" fill="white"/>
</clipPath>
</defs>
</svg>
